<?xml version="1.0" encoding="utf-8"?>
<!-- Generator: Adobe Illustrator 16.0.0, SVG Export Plug-In . SVG Version: 6.00 Build 0)  -->
<!DOCTYPE svg PUBLIC "-//W3C//DTD SVG 1.1//EN" "http://www.w3.org/Graphics/SVG/1.1/DTD/svg11.dtd">
<svg version="1.1" id="Layer_1" xmlns="http://www.w3.org/2000/svg" xmlns:xlink="http://www.w3.org/1999/xlink" x="0px" y="0px"
	 width="318.803252836" height="313.673085549" viewBox="0 0 435 428" enable-background="new 0 0 435 428" xml:space="preserve">
<g>
	<g>
		<g id="XMLID_1_">
			<g>
				<path fill="#ED1C24" d="M422.42,204.86l0.24,9.96l-0.24,9.84l-0.72,9.84l-1.2,9.72l-1.68,9.721l-2.16,9.6l-2.641,9.6
					l-3.119,9.36l-3.48,9.12l-3.96,9l-4.44,8.88l-4.92,8.52l-5.279,8.4l-5.641,8.04l-6.12,7.8l-6.359,7.44l-6.84,7.2l-7.2,6.72
					l-7.44,6.479l-7.8,6l-8.04,5.761l-8.28,5.279l-8.64,4.801l-8.76,4.439l-9,3.96l-9.24,3.601l-9.36,3.119l-9.479,2.641
					l-9.601,2.16l-9.72,1.68l-9.84,1.2l-9.84,0.72l-9.84,0.24l-9.84-0.24l-9.84-0.72l-9.84-1.2l-9.72-1.68l-9.6-2.16l-9.48-2.641
					l-9.36-3.119l-9.24-3.601l-9-3.96l-8.76-4.439l-8.64-4.801l-8.28-5.279l-8.04-5.761l-7.8-6l-7.44-6.479l-7.2-6.72l-6.84-7.2
					l-6.36-7.44l-6.12-7.8l-5.64-8.04l-5.28-8.4l-4.92-8.52l-4.32-8.88l-4.08-9l-3.48-9.12l-3.12-9.36l-2.64-9.6l-2.16-9.6
					l-1.68-9.721l-1.2-9.72l-0.72-9.84l-0.24-9.84l0.24-9.96l0.72-9.84l1.2-9.72l1.68-9.72l2.16-9.6l2.64-9.6l3.12-9.36l3.48-9.12
					l4.08-9l4.32-8.88l4.92-8.52l5.28-8.4l5.64-8.04l6.12-7.8l6.36-7.44l6.84-7.08l7.2-6.84l7.44-6.48l7.8-6l8.04-5.76l8.28-5.28
					l8.64-4.8l8.76-4.44l9-3.96l9.24-3.6l9.36-3.12l9.48-2.64l9.6-2.16l9.72-1.68l9.84-1.2l9.84-0.72l9.84-0.24l9.84,0.24l9.84,0.72
					l9.84,1.2l9.72,1.68l9.601,2.16l9.479,2.64l9.36,3.12l9.24,3.6l9,3.96l8.76,4.44l8.64,4.8l8.28,5.28l8.04,5.76l7.8,6l7.44,6.48
					l7.2,6.84l6.84,7.08l6.359,7.44l6.12,7.8l5.641,8.04l5.279,8.4l4.92,8.52l4.44,8.88l3.96,9l3.48,9.12l3.119,9.36l2.641,9.6
					l2.16,9.6l1.68,9.72l1.2,9.72L422.42,204.86z M392.3,214.82l-0.24-9l-0.72-8.88l-1.2-8.88l-1.56-8.76l-2.16-8.64l-2.52-8.52
					l-3-8.52l-3.36-8.16l-3.84-8.04l-4.32-7.92l-4.68-7.56l-5.04-7.32l-5.4-7.08l-5.76-6.84l-6.12-6.48L335.9,88.1l-6.841-5.76
					l-7.079-5.52l-7.32-5.04l-7.68-4.68l-7.801-4.2l-8.04-3.84l-8.279-3.48l-8.4-3l-8.52-2.52l-8.761-2.04l-8.76-1.68l-8.76-1.08
					l-9-0.72l-8.88-0.24l-8.88,0.24l-8.88,0.72l-8.88,1.08l-8.76,1.68l-8.76,2.04l-8.52,2.52l-8.4,3l-8.28,3.48l-8.04,3.84l-7.8,4.2
					l-7.68,4.68l-7.32,5.04l-7.08,5.52l-6.72,5.76l-6.48,6.12l-6.24,6.48l-5.76,6.84l-5.4,7.08l-5.04,7.32l-4.68,7.56l-4.32,7.92
					l-3.84,8.04l-3.36,8.16l-3,8.52l-2.52,8.52l-2.04,8.64l-1.68,8.76l-1.2,8.88l-0.72,8.88l-0.12,9l0.12,8.88l0.72,8.88l1.2,8.88
					l1.68,8.76l2.04,8.641l2.52,8.64l3,8.4l3.36,8.159l3.84,8.04l4.32,7.92l4.68,7.561l5.04,7.439l5.4,7.08l5.76,6.721l6.24,6.479
					l6.48,6.12l6.72,5.88l7.08,5.4l7.32,5.04l7.68,4.68l7.8,4.2l8.04,3.84l8.28,3.48l8.4,3l8.52,2.52l8.76,2.04l8.76,1.68l8.88,1.08
					l8.88,0.721l8.88,0.239l8.88-0.239l9-0.721l8.76-1.08l8.76-1.68l8.761-2.04l8.52-2.52l8.4-3l8.279-3.48l8.04-3.84l7.801-4.2
					l7.68-4.68l7.32-5.04l7.079-5.4l6.841-5.88l6.479-6.12l6.12-6.479l5.76-6.721l5.4-7.08l5.04-7.439l4.68-7.561l4.32-7.92
					l3.84-8.04l3.36-8.159l3-8.4l2.52-8.64l2.16-8.641l1.56-8.76l1.2-8.88l0.72-8.88L392.3,214.82z"/>
				<path fill="#1B1464" d="M392.06,205.82l0.24,9l-0.24,8.88l-0.72,8.88l-1.2,8.88l-1.56,8.76l-2.16,8.641l-2.52,8.64l-3,8.4
					l-3.36,8.159l-3.84,8.04l-4.32,7.92l-4.68,7.561l-5.04,7.439l-5.4,7.08l-5.76,6.721l-6.12,6.479l-6.479,6.12l-6.841,5.88
					l-7.079,5.4l-7.32,5.04l-7.68,4.68l-7.801,4.2l-8.04,3.84l-8.279,3.48l-8.4,3l-8.52,2.52l-8.761,2.04l-8.76,1.68l-8.76,1.08
					l-9,0.721l-8.88,0.239l-8.88-0.239l-8.88-0.721l-8.88-1.08l-8.76-1.68l-8.76-2.04l-8.52-2.52l-8.4-3l-8.28-3.48l-8.04-3.84
					l-7.8-4.2l-7.68-4.68l-7.32-5.04l-7.08-5.4l-6.72-5.88l-6.48-6.12l-6.24-6.479L89.3,322.1l-5.4-7.08l-5.04-7.439l-4.68-7.561
					l-4.32-7.92l-3.84-8.04l-3.36-8.159l-3-8.4l-2.52-8.64l-2.04-8.641l-1.68-8.76l-1.2-8.88l-0.72-8.88l-0.12-8.88l0.12-9
					l0.72-8.88l1.2-8.88l1.68-8.76l2.04-8.64l2.52-8.52l3-8.52l3.36-8.16l3.84-8.04l4.32-7.92l4.68-7.56l5.04-7.32l5.4-7.08
					l5.76-6.84l6.24-6.48l6.48-6.12l6.72-5.76l7.08-5.52l7.32-5.04l7.68-4.68l7.8-4.2l8.04-3.84l8.28-3.48l8.4-3l8.52-2.52
					l8.76-2.04l8.76-1.68l8.88-1.08l8.88-0.72l8.88-0.24l8.88,0.24l9,0.72l8.76,1.08l8.76,1.68l8.761,2.04l8.52,2.52l8.4,3
					l8.279,3.48l8.04,3.84l7.801,4.2l7.68,4.68l7.32,5.04l7.079,5.52l6.841,5.76l6.479,6.12l6.12,6.48l5.76,6.84l5.4,7.08l5.04,7.32
					l4.68,7.56l4.32,7.92l3.84,8.04l3.36,8.16l3,8.52l2.52,8.52l2.16,8.64l1.56,8.76l1.2,8.88L392.06,205.82z M334.34,214.82
					l-0.24-7.44l-0.72-7.32l-1.2-7.32l-1.68-7.08l-2.04-7.08l-2.64-6.96l-3-6.6l-3.48-6.6l-3.96-6.24l-4.32-6l-4.56-5.64l-5.04-5.4
					l-5.4-5.04l-5.76-4.68l-6-4.32l-6.24-3.84l-6.479-3.48l-6.72-3l-6.841-2.64l-7.079-2.16l-7.2-1.68l-7.2-1.2l-7.44-0.72
					l-1.83-0.06l-4.77-0.18l-0.33,0.01l-0.39-0.01l-7.32,0.24l-7.32,0.72l-7.32,1.2l-7.2,1.68l-7.08,2.16l-6.84,2.64l-6.72,3
					l-6.48,3.48l-6.24,3.84l-6,4.32l-5.76,4.68l-5.28,5.04l-5.04,5.4l-4.68,5.64l-4.32,6l-3.96,6.24l-3.36,6.6l-3.12,6.6l-2.52,6.96
					l-2.16,7.08l-1.68,7.08l-1.2,7.32l-0.72,7.32l-0.24,7.44l0.24,7.32l0.72,7.32l1.2,7.32l1.68,7.08l2.16,7.08l2.52,6.96l3.12,6.72
					l3.36,6.479l3.96,6.24l4.32,6l4.68,5.641l5.04,5.399l5.28,5.04l5.76,4.68l6,4.32l6.24,3.84l6.48,3.48l6.72,3l6.84,2.64
					l7.08,2.16l7.2,1.68l7.32,1.2l7.32,0.72l7.32,0.24l7.32-0.24l7.44-0.72l7.2-1.2l7.2-1.68l7.079-2.16l6.841-2.64l6.72-3
					l6.479-3.48l6.24-3.84l6-4.32l5.76-4.68l5.4-5.04l5.04-5.399l4.56-5.641l4.32-6l3.96-6.24l3.48-6.479l3-6.72l2.64-6.96
					l2.04-7.08l1.68-7.08l1.2-7.32l0.72-7.32L334.34,214.82z"/>
				<polygon fill="#1B1464" points="311.66,185.18 311.9,191.54 311.66,198.02 310.94,204.26 309.86,210.62 308.3,216.74 
					306.26,222.86 303.86,228.74 300.98,234.5 297.74,239.9 294.02,245.18 290.06,250.1 285.74,254.78 281.06,259.22 276.02,263.18 
					270.86,266.78 265.34,270.02 259.58,272.9 253.7,275.42 247.7,277.34 241.46,279.02 235.22,280.1 228.86,280.82 222.5,281.06 
					216.14,280.82 209.78,280.1 203.42,279.02 197.3,277.34 191.18,275.42 185.3,272.9 179.66,270.02 174.14,266.78 168.86,263.18 
					163.94,259.22 159.26,254.78 154.94,250.1 150.86,245.18 147.26,239.9 144.02,234.5 141.14,228.74 138.74,222.86 136.7,216.74 
					135.14,210.62 133.94,204.26 133.34,198.02 133.1,191.54 133.34,185.18 133.94,178.82 135.14,172.58 136.7,166.34 
					138.74,160.34 141.14,154.46 144.02,148.7 147.26,143.3 150.86,138.02 154.94,132.98 159.26,128.3 163.94,123.98 168.86,120.02 
					174.14,116.3 179.66,113.06 185.3,110.3 191.18,107.78 197.3,105.74 203.42,104.18 209.78,103.1 216.14,102.38 222.17,102.15 
					227.27,102.32 228.86,102.38 235.22,103.1 241.46,104.18 247.7,105.74 253.7,107.78 259.58,110.3 265.34,113.06 270.86,116.3 
					276.02,120.02 281.06,123.98 285.74,128.3 290.06,132.98 294.02,138.02 297.74,143.3 300.98,148.7 303.86,154.46 306.26,160.34 
					308.3,166.34 309.86,172.58 310.94,178.82 				"/>
			</g>
			<g>
			</g>
		</g>
		<polyline fill="none" stroke="#FFFFFF" stroke-width="2" stroke-miterlimit="10" points="148.34,222.14 148.34,227.66 
			155.9,228.859 163.46,229.459 171.14,229.699 178.7,229.459 186.26,228.619 193.82,227.42 193.82,221.899 		"/>
		<polyline fill="none" stroke="#FFFFFF" stroke-width="2" stroke-miterlimit="10" points="148.34,224.391 148.34,222.14 
			155.9,223.34 163.46,223.939 171.14,224.18 178.7,223.939 186.26,223.1 193.82,221.899 193.82,222.74 		"/>
		<path fill="none" stroke="#FFFFFF" stroke-miterlimit="10" d="M163.46,151.459l-9.84,1.44 M193.82,227.42v-0.121 M148.34,227.66
			v-0.121"/>
		<polyline fill="none" stroke="#FFFFFF" stroke-miterlimit="10" points="178.7,151.459 188.54,152.9 189.26,222.74 		"/>
		<path fill="none" stroke="#FFFFFF" stroke-miterlimit="10" d="M165.38,214.459v9.6 M165.38,199.339v7.56 M165.38,184.099v7.561
			 M165.38,168.86v7.56 M176.78,214.459v9.6 M176.78,199.339v7.56 M176.78,184.099v7.561 M176.78,168.86v7.56 M159.62,206.899v7.56
			 M182.54,206.899v7.56 M171.14,206.899v7.56 M159.62,191.66v7.68 M182.54,191.66v7.68 M171.14,191.66v7.68 M159.62,176.419v7.68
			 M182.54,176.419v7.68 M171.14,176.419v7.68 M159.62,159.74v9.12 M182.54,159.74v9.12 M171.14,159.74v9.12 M167.3,151.459h7.56
			 M174.86,157.219h3.84 M163.46,157.219h3.84 M178.7,151.459v5.76 M174.86,151.459v5.76 M163.46,151.459v5.76 M167.3,151.459v5.76
			 M153.62,159.74h35.04 M153.5,168.86h68.64 M153.38,176.419h68.76 M153.26,184.099h68.88 M153.26,191.66h35.64 M153.14,199.339
			h35.88 M153.02,206.899h36.12 M153.02,214.459h36.12"/>
		<polygon fill="none" stroke="#FFFFFF" stroke-width="2" stroke-miterlimit="10" points="189.26,222.623 188.54,152.9 
			178.7,151.459 178.7,157.219 174.86,157.219 174.86,151.459 167.3,151.459 167.3,157.219 163.46,157.219 163.46,151.459 
			153.62,152.9 152.9,222.859 160.1,223.699 167.42,224.18 174.74,224.18 182.06,223.58 		"/>
		<path fill="none" stroke="#FFFFFF" stroke-miterlimit="10" d="M199.34,176.419v7.68 M210.74,176.419v7.68 M193.58,168.86v7.56
			 M204.98,168.86v7.56 M216.5,168.86v7.56 M152.9,222.859v-0.119 M153.62,152.9v-0.12 M163.46,151.459v-0.12 M163.46,157.219v-0.12
			 M167.3,157.219v-0.12 M167.3,151.459v-0.12 M174.86,151.459v-0.12 M174.86,157.219v-0.12 M178.7,157.219v-0.12 M178.7,151.459
			v-0.12 M188.54,152.9v-0.12"/>
		<polyline fill="none" stroke="#FFFFFF" stroke-width="2" stroke-miterlimit="10" points="295.939,227.659 295.939,222.14 
			288.5,223.339 280.82,223.939 273.26,224.18 265.58,223.939 258.02,223.1 250.461,221.899 250.461,227.42 		"/>
		<polyline fill="none" stroke="#FFFFFF" stroke-width="2" stroke-miterlimit="10" points="250.461,226.667 250.461,227.42 
			258.02,228.619 265.58,229.459 273.26,229.699 280.82,229.459 288.5,228.859 295.939,227.659 295.939,227.5 		"/>
		<path fill="none" stroke="#FFFFFF" stroke-miterlimit="10" d="M280.819,151.459l9.84,1.44 M250.461,221.899v-0.12 M295.939,222.14
			v-0.12"/>
		<polyline fill="none" stroke="#FFFFFF" stroke-width="2" stroke-miterlimit="10" points="265.579,151.459 255.739,152.9 
			255.02,222.74 		"/>
		<path fill="none" stroke="#FFFFFF" stroke-miterlimit="10" d="M255.02,222.74l0.72-69.84 M278.9,214.459v9.6 M278.9,199.339v7.56
			 M278.9,184.099v7.561 M278.9,168.86v7.56 M267.5,214.459v9.6 M267.5,199.339v7.56 M267.5,184.099v7.561 M267.5,168.86v7.56
			 M284.66,206.899v7.56 M261.74,206.899v7.56 M273.26,206.899v7.56 M284.66,191.66v7.68 M261.74,191.66v7.68 M273.26,191.66v7.68
			 M284.66,176.419v7.68 M261.74,176.419v7.68 M273.26,176.419v7.68 M284.659,159.74l0.001,9.12 M261.739,159.74l0.001,9.12
			 M273.26,159.74v9.12 M276.979,151.459h-7.56 M269.42,157.219h-3.841 M280.819,157.219h-3.84 M265.579,151.459v5.76
			 M269.42,151.459v5.76 M280.819,151.459v5.76 M276.979,151.459v5.76 M290.779,159.74h-35.04 M290.9,168.86h-68.76 M290.9,176.419
			h-68.76 M291.02,184.099H222.14 M291.141,191.66h-35.76 M291.141,199.339H255.26 M291.26,206.899h-36 M291.381,214.459h-36.24"/>
		<polyline fill="none" stroke="#FFFFFF" stroke-miterlimit="10" points="291.381,222.859 284.18,223.699 276.859,224.18 
			269.539,224.18 262.34,223.58 255.02,222.74 		"/>
		<polyline fill="none" stroke="#FFFFFF" stroke-width="2" stroke-miterlimit="10" points="291.381,222.859 290.659,152.9 
			280.819,151.459 280.819,157.219 276.979,157.219 276.979,151.459 269.42,151.459 269.42,157.219 265.579,157.219 
			265.579,151.459 255.739,152.9 		"/>
		<path fill="none" stroke="#FFFFFF" stroke-miterlimit="10" d="M244.939,176.419v7.68 M233.539,176.419v7.68 M250.699,168.86v7.56
			 M239.301,168.86v7.56 M227.9,168.86v7.56 M265.579,151.459v-0.12 M265.579,157.219v-0.12 M269.42,157.219v-0.12 M269.42,151.459
			v-0.12 M276.979,151.459v-0.12 M276.979,157.219v-0.12 M280.819,157.219v-0.12 M280.819,151.459v-0.12 M290.659,152.9v-0.12
			 M291.381,222.859v-0.12 M255.02,222.74v-0.121"/>
		<polyline fill="none" stroke="#FFFFFF" stroke-width="2" stroke-miterlimit="10" points="255.381,191.66 248.9,189.86 
			242.301,188.419 235.58,187.459 228.86,186.98 222.14,186.98 		"/>
		<polyline fill="none" stroke="#FFFFFF" stroke-width="2" stroke-miterlimit="10" points="255.381,191.66 255.619,166.219 
			248.66,166.219 248.66,161.78 243.26,161.78 243.26,166.219 237.74,166.219 237.74,161.78 232.34,161.78 232.34,166.219 
			226.82,166.219 226.82,161.78 222.14,161.78 217.46,161.78 217.46,166.219 212.06,166.219 212.06,161.78 206.54,161.78 
			206.54,166.219 201.14,166.219 201.14,161.78 195.62,161.78 195.62,166.219 188.66,166.219 188.9,191.66 		"/>
		<polyline fill="none" stroke="#FFFFFF" stroke-width="2" stroke-miterlimit="10" points="222.14,186.98 215.42,186.98 
			208.7,187.459 201.98,188.419 195.38,189.86 188.9,191.66 		"/>
		<path fill="none" stroke="#FFFFFF" stroke-width="2" stroke-miterlimit="10" d="M188.9,191.66v-0.12 M188.66,166.219v-0.12
			 M195.62,166.219v-0.12 M195.62,161.78v-0.12 M201.14,161.78v-0.12 M201.14,166.219v-0.12 M206.54,166.219v-0.12 M206.54,161.78
			v-0.12 M212.06,161.78v-0.12 M212.06,166.219v-0.12 M217.46,166.219v-0.12 M217.46,161.78v-0.12 M222.14,161.78v-0.12
			 M226.82,161.78v-0.12 M226.82,166.219v-0.12 M232.34,166.219v-0.12 M232.34,161.78v-0.12 M237.74,161.78v-0.12 M237.74,166.219
			v-0.12 M243.26,166.219v-0.12 M243.26,161.78v-0.12 M248.66,161.78v-0.12 M248.66,166.219v-0.12 M255.619,166.219v-0.12
			 M255.381,191.66v-0.12 M222.14,186.98v-0.12"/>
	</g>
	<g>
		<g id="XMLID_2_">
			<g>
			</g>
		</g>
		<g>
			<g id="XMLID_3_">
				<g>
					<polygon fill="#FFFFFF" points="372.86,218.539 372.02,222.619 370.58,226.579 368.899,230.299 366.86,233.899 364.34,237.139 
						369.979,241.939 367.46,247.219 364.46,252.259 360.979,256.939 367.46,262.459 364.82,267.739 361.7,272.899 358.46,277.819 
						354.74,282.499 359.54,286.459 355.34,293.779 350.78,300.859 345.74,307.699 340.46,314.179 334.82,320.419 328.82,326.419 
						322.58,331.939 315.979,337.219 309.14,342.139 301.939,346.699 294.62,350.779 287.06,354.499 279.38,357.859 271.46,360.739 
						263.42,363.139 255.26,365.179 246.979,366.739 238.58,367.939 230.18,368.659 221.78,368.779 213.38,368.659 204.98,367.939 
						196.58,366.739 188.3,365.179 180.14,363.139 172.1,360.739 164.18,357.859 156.5,354.499 148.94,350.779 141.62,346.699 
						134.42,342.139 127.58,337.219 120.98,331.939 114.74,326.419 108.74,320.419 103.1,314.179 97.82,307.699 92.78,300.859 
						88.22,293.779 84.02,286.459 88.82,282.499 85.1,277.819 81.86,272.899 78.74,267.739 76.1,262.459 82.58,256.939 
						79.1,252.259 76.1,247.219 73.58,241.939 79.22,237.139 76.7,233.899 74.66,230.299 72.98,226.579 71.54,222.619 70.7,218.539 
						80.78,219.019 86.42,209.419 88.22,213.859 90.38,217.939 92.9,221.899 95.9,225.499 99.12,228.959 95.88,231.599 
						95.9,231.619 95.91,231.639 97.94,235.699 100.22,239.539 102.74,243.259 105.74,246.619 101.66,250.099 103.94,254.899 
						106.58,259.579 109.58,263.899 112.94,268.099 108.86,271.579 112.58,278.299 116.78,284.779 121.34,291.02 126.26,296.899 
						131.54,302.539 137.18,307.819 143.06,312.739 149.3,317.419 155.78,321.619 162.5,325.339 169.34,328.699 176.54,331.699 
						183.86,334.219 191.18,336.259 198.74,337.939 206.42,339.139 214.1,339.859 221.78,340.099 229.46,339.859 237.14,339.139 
						244.82,337.939 252.38,336.259 259.7,334.219 267.02,331.699 274.22,328.699 281.06,325.339 287.78,321.619 294.26,317.419 
						300.5,312.739 306.38,307.819 312.02,302.539 317.3,296.899 322.22,291.02 326.78,284.779 330.979,278.299 334.7,271.579 
						330.62,268.099 333.979,263.899 336.979,259.579 339.62,254.899 341.899,250.099 337.82,246.619 340.82,243.259 
						343.34,239.539 345.62,235.699 347.66,231.619 347.67,231.599 344.43,228.959 347.66,225.499 350.66,221.899 353.18,217.939 
						355.34,213.859 357.14,209.419 362.78,219.019 					"/>
					<polygon points="347.67,231.599 347.66,231.619 347.64,231.639 344.399,228.999 344.42,228.979 344.43,228.959 					"/>
					<polygon points="99.14,228.979 99.15,228.999 95.91,231.639 95.9,231.619 95.88,231.599 99.12,228.959 					"/>
				</g>
				<g>
					
						<line fill="none" stroke="#000000" stroke-width="0.05" stroke-miterlimit="10" x1="108.86" y1="271.579" x2="112.94" y2="268.099"/>
					<polyline fill="none" stroke="#000000" stroke-width="0.05" stroke-miterlimit="10" points="101.66,250.099 103.94,254.899 
						106.58,259.579 109.58,263.899 112.94,268.099 					"/>
					
						<line fill="none" stroke="#000000" stroke-width="0.05" stroke-miterlimit="10" x1="101.66" y1="250.099" x2="105.74" y2="246.619"/>
					<polyline fill="none" stroke="#000000" stroke-width="0.05" stroke-miterlimit="10" points="95.91,231.639 97.94,235.699 
						100.22,239.539 102.74,243.259 105.74,246.619 					"/>
					<polyline fill="none" stroke="#000000" stroke-width="0.05" stroke-miterlimit="10" points="86.42,209.419 88.22,213.859 
						90.38,217.939 92.9,221.899 95.9,225.499 99.12,228.959 					"/>
					<polyline fill="none" stroke="#000000" stroke-width="0.05" stroke-miterlimit="10" points="70.7,218.539 71.54,222.619 
						72.98,226.579 74.66,230.299 76.7,233.899 79.22,237.139 					"/>
					<polyline fill="none" stroke="#000000" stroke-width="0.05" stroke-miterlimit="10" points="70.7,218.539 80.78,219.019 
						86.42,209.419 					"/>
					<polyline fill="none" stroke="#000000" stroke-width="0.05" stroke-miterlimit="10" points="334.7,271.579 330.979,278.299 
						326.78,284.779 322.22,291.02 317.3,296.899 312.02,302.539 306.38,307.819 300.5,312.739 294.26,317.419 287.78,321.619 
						281.06,325.339 274.22,328.699 267.02,331.699 259.7,334.219 252.38,336.259 244.82,337.939 237.14,339.139 229.46,339.859 
						221.78,340.099 					"/>
					
						<line fill="none" stroke="#000000" stroke-width="0.05" stroke-miterlimit="10" x1="334.7" y1="271.579" x2="330.62" y2="268.099"/>
					<polyline fill="none" stroke="#000000" stroke-width="0.05" stroke-miterlimit="10" points="341.899,250.099 339.62,254.899 
						336.979,259.579 333.979,263.899 330.62,268.099 					"/>
					
						<line fill="none" stroke="#000000" stroke-width="0.05" stroke-miterlimit="10" x1="341.899" y1="250.099" x2="337.82" y2="246.619"/>
					<polyline fill="none" stroke="#000000" stroke-width="0.05" stroke-miterlimit="10" points="347.66,231.619 345.62,235.699 
						343.34,239.539 340.82,243.259 337.82,246.619 					"/>
					<polyline fill="none" stroke="#000000" stroke-width="0.05" stroke-miterlimit="10" points="357.14,209.419 355.34,213.859 
						353.18,217.939 350.66,221.899 347.66,225.499 344.43,228.959 					"/>
					<polyline fill="none" stroke="#000000" stroke-width="0.05" stroke-miterlimit="10" points="372.86,218.539 372.02,222.619 
						370.58,226.579 368.899,230.299 366.86,233.899 364.34,237.139 					"/>
					<polyline fill="none" stroke="#000000" stroke-width="0.05" stroke-miterlimit="10" points="372.86,218.539 362.78,219.019 
						357.14,209.419 					"/>
					<polyline fill="none" stroke="#000000" stroke-width="0.05" stroke-miterlimit="10" points="364.34,237.139 369.979,241.939 
						367.46,247.219 364.46,252.259 360.979,256.939 367.46,262.459 364.82,267.739 361.7,272.899 358.46,277.819 354.74,282.499 
						359.54,286.459 355.34,293.779 350.78,300.859 345.74,307.699 340.46,314.179 334.82,320.419 328.82,326.419 322.58,331.939 
						315.979,337.219 309.14,342.139 301.939,346.699 294.62,350.779 287.06,354.499 279.38,357.859 271.46,360.739 263.42,363.139 
						255.26,365.179 246.979,366.739 238.58,367.939 230.18,368.659 221.78,368.779 					"/>
					<polyline fill="none" stroke="#000000" stroke-width="0.05" stroke-miterlimit="10" points="108.86,271.579 112.58,278.299 
						116.78,284.779 121.34,291.02 126.26,296.899 131.54,302.539 137.18,307.819 143.06,312.739 149.3,317.419 155.78,321.619 
						162.5,325.339 169.34,328.699 176.54,331.699 183.86,334.219 191.18,336.259 198.74,337.939 206.42,339.139 214.1,339.859 
						221.78,340.099 					"/>
					<polyline fill="none" stroke="#000000" stroke-width="0.05" stroke-miterlimit="10" points="79.22,237.139 73.58,241.939 
						76.1,247.219 79.1,252.259 82.58,256.939 76.1,262.459 78.74,267.739 81.86,272.899 85.1,277.819 88.82,282.499 84.02,286.459 
						88.22,293.779 92.78,300.859 97.82,307.699 103.1,314.179 108.74,320.419 114.74,326.419 120.98,331.939 127.58,337.219 
						134.42,342.139 141.62,346.699 148.94,350.779 156.5,354.499 164.18,357.859 172.1,360.739 180.14,363.139 188.3,365.179 
						196.58,366.739 204.98,367.939 213.38,368.659 221.78,368.779 					"/>
				</g>
			</g>
		</g>
	</g>
	<polygon fill="#FFFFFF" stroke="#FFFFFF" stroke-width="2" stroke-miterlimit="10" points="224.193,77.372 231.167,93.837 
		247.182,94.075 235.688,105.279 238.401,121.1 224.193,113.63 209.985,121.1 212.699,105.279 201.204,94.075 216.5,93.837 	"/>
	<g>
		<path d="M129.05,324.706c-0.03,0.036-0.065,0.063-0.105,0.079c-0.041,0.016-0.09,0.015-0.15-0.005s-0.133-0.056-0.219-0.107
			c-0.086-0.053-0.19-0.129-0.312-0.23c-0.158-0.131-0.281-0.244-0.369-0.34s-0.142-0.182-0.162-0.259
			c-0.02-0.078-0.027-0.152-0.021-0.224l0.408-7.048l-3.629,4.379c-0.026,0.031-0.061,0.054-0.103,0.068s-0.092,0.011-0.15-0.011
			c-0.059-0.021-0.129-0.058-0.213-0.108c-0.083-0.05-0.182-0.122-0.294-0.216c-0.108-0.09-0.196-0.172-0.264-0.246
			c-0.067-0.075-0.117-0.14-0.149-0.192c-0.032-0.054-0.045-0.102-0.039-0.146c0.006-0.044,0.022-0.082,0.048-0.113l6.966-8.404
			c0.03-0.036,0.065-0.061,0.105-0.072c0.041-0.013,0.09-0.008,0.148,0.014s0.13,0.059,0.216,0.111
			c0.086,0.052,0.184,0.123,0.292,0.213c0.113,0.094,0.202,0.177,0.267,0.25c0.065,0.072,0.113,0.136,0.146,0.188
			c0.032,0.054,0.046,0.102,0.042,0.144s-0.021,0.081-0.051,0.117l-3.225,3.891l6.324-1.322c0.061-0.019,0.12-0.025,0.179-0.023
			c0.059,0.003,0.12,0.019,0.185,0.046s0.139,0.067,0.221,0.119c0.082,0.053,0.181,0.128,0.298,0.226
			c0.118,0.097,0.208,0.181,0.271,0.252c0.063,0.071,0.108,0.134,0.136,0.188c0.028,0.054,0.038,0.1,0.032,0.141
			c-0.007,0.04-0.023,0.076-0.049,0.107c-0.049,0.059-0.112,0.104-0.19,0.14c-0.078,0.034-0.2,0.069-0.368,0.105l-5.78,1.065
			l-0.317,6.746c-0.021,0.181-0.041,0.299-0.061,0.355C129.094,324.638,129.073,324.68,129.05,324.706z"/>
		<path d="M136.317,330.077c-0.027,0.038-0.061,0.063-0.098,0.075c-0.038,0.013-0.085,0.013-0.142,0
			c-0.056-0.012-0.126-0.041-0.208-0.087c-0.083-0.046-0.181-0.109-0.294-0.192c-0.119-0.086-0.212-0.162-0.281-0.227
			s-0.118-0.122-0.146-0.172s-0.043-0.095-0.043-0.135c0-0.04,0.014-0.079,0.042-0.116l2.727-3.744
			c0.266-0.364,0.451-0.679,0.557-0.943c0.105-0.264,0.162-0.516,0.17-0.756s-0.043-0.467-0.153-0.678
			c-0.111-0.211-0.28-0.399-0.507-0.565c-0.293-0.214-0.663-0.323-1.108-0.329c-0.446-0.005-0.976,0.076-1.591,0.244l-3.255,4.468
			c-0.027,0.038-0.06,0.063-0.098,0.075c-0.038,0.013-0.085,0.013-0.142,0.001c-0.056-0.013-0.126-0.042-0.208-0.087
			c-0.083-0.046-0.183-0.112-0.302-0.198c-0.113-0.083-0.205-0.156-0.273-0.222c-0.069-0.064-0.119-0.122-0.15-0.174
			s-0.045-0.097-0.043-0.135c0.002-0.038,0.017-0.076,0.045-0.114l6.914-9.491c0.027-0.037,0.06-0.064,0.097-0.081
			s0.085-0.018,0.144-0.004c0.059,0.014,0.129,0.044,0.212,0.09c0.083,0.046,0.181,0.109,0.294,0.192
			c0.118,0.086,0.212,0.162,0.281,0.227s0.118,0.122,0.146,0.172s0.042,0.096,0.041,0.139c-0.002,0.042-0.017,0.082-0.044,0.12
			l-2.789,3.829c0.595-0.11,1.126-0.128,1.593-0.053c0.467,0.076,0.873,0.239,1.219,0.491c0.426,0.311,0.732,0.645,0.918,1.001
			s0.281,0.722,0.285,1.094c0.004,0.373-0.073,0.75-0.231,1.131c-0.158,0.382-0.404,0.802-0.739,1.262L136.317,330.077z"/>
		<path d="M141.458,333.748l-2.471,1.863c-0.081,0.059-0.195,0.07-0.342,0.034c-0.147-0.037-0.344-0.135-0.589-0.295
			c-0.128-0.083-0.227-0.156-0.297-0.22c-0.071-0.063-0.117-0.123-0.14-0.18c-0.022-0.057-0.02-0.111,0.007-0.164
			c0.027-0.052,0.078-0.103,0.152-0.152l2.414-1.711c-0.031-0.049-0.052-0.107-0.063-0.178c-0.011-0.069-0.007-0.134,0.01-0.192
			l1.759-7.874c0.027-0.129,0.061-0.223,0.099-0.281c0.039-0.06,0.088-0.093,0.15-0.102s0.141,0.009,0.237,0.055
			c0.096,0.045,0.218,0.115,0.365,0.212c0.147,0.096,0.26,0.174,0.339,0.236c0.079,0.062,0.136,0.118,0.172,0.17
			c0.036,0.052,0.054,0.103,0.052,0.154c-0.002,0.051-0.012,0.116-0.028,0.196l-1.569,6.551l0.022,0.014l5.308-4.158
			c0.09-0.074,0.165-0.111,0.224-0.111c0.059,0,0.135,0.021,0.226,0.063s0.216,0.114,0.373,0.217
			c0.137,0.089,0.247,0.169,0.327,0.239c0.081,0.069,0.13,0.135,0.15,0.196c0.019,0.062,0.01,0.122-0.029,0.181
			c-0.038,0.06-0.101,0.123-0.188,0.192L141.458,333.748z"/>
		<path d="M154.066,336.316c-0.343,0.594-0.716,1.091-1.12,1.49c-0.404,0.399-0.828,0.694-1.272,0.884
			c-0.444,0.189-0.901,0.268-1.369,0.234s-0.938-0.187-1.41-0.459c-0.218-0.126-0.407-0.265-0.567-0.414
			c-0.16-0.15-0.301-0.325-0.423-0.524c-0.122-0.198-0.229-0.423-0.321-0.673c-0.093-0.25-0.178-0.535-0.255-0.858l-0.484,0.838
			c-0.023,0.04-0.054,0.069-0.092,0.089c-0.038,0.019-0.085,0.023-0.141,0.015c-0.056-0.009-0.121-0.027-0.196-0.057
			c-0.074-0.03-0.165-0.075-0.271-0.137c-0.102-0.059-0.185-0.113-0.25-0.165c-0.065-0.051-0.116-0.099-0.151-0.143
			c-0.036-0.044-0.052-0.086-0.05-0.125s0.016-0.079,0.039-0.12l5.875-10.167c0.023-0.04,0.053-0.07,0.088-0.091
			s0.083-0.026,0.143-0.019c0.06,0.007,0.133,0.029,0.22,0.066c0.087,0.036,0.191,0.09,0.313,0.16
			c0.126,0.073,0.228,0.139,0.303,0.195c0.075,0.058,0.13,0.109,0.164,0.156c0.034,0.047,0.052,0.091,0.055,0.133
			c0.002,0.042-0.008,0.084-0.031,0.124l-2.37,4.102c0.323-0.09,0.621-0.151,0.893-0.184s0.525-0.04,0.759-0.023
			s0.454,0.058,0.66,0.123c0.206,0.064,0.411,0.155,0.614,0.273c0.497,0.287,0.865,0.631,1.103,1.033
			c0.238,0.401,0.372,0.832,0.4,1.292s-0.036,0.942-0.192,1.447S154.353,335.819,154.066,336.316z M152.681,335.709
			c0.202-0.35,0.372-0.705,0.509-1.065c0.137-0.361,0.212-0.707,0.226-1.037c0.014-0.33-0.044-0.636-0.174-0.918
			c-0.13-0.281-0.358-0.517-0.685-0.705c-0.164-0.095-0.337-0.165-0.522-0.21c-0.185-0.046-0.389-0.063-0.614-0.051
			c-0.225,0.012-0.474,0.051-0.747,0.116c-0.273,0.066-0.582,0.168-0.928,0.307l-1.579,2.732c0.104,0.621,0.25,1.134,0.439,1.537
			c0.189,0.404,0.455,0.704,0.796,0.902c0.316,0.183,0.631,0.263,0.943,0.24s0.612-0.118,0.897-0.288
			c0.286-0.17,0.55-0.393,0.794-0.668S152.496,336.029,152.681,335.709z"/>
		<path d="M162.29,340.262c-0.103,0.203-0.228,0.322-0.374,0.357c-0.146,0.034-0.285,0.019-0.416-0.048l-4.648-2.352
			c-0.199,0.392-0.338,0.765-0.417,1.118c-0.08,0.354-0.085,0.689-0.015,1.007c0.07,0.318,0.222,0.611,0.455,0.881
			s0.563,0.512,0.989,0.727c0.336,0.17,0.649,0.294,0.94,0.372s0.549,0.132,0.775,0.16c0.226,0.029,0.415,0.048,0.566,0.056
			c0.151,0.007,0.259,0.027,0.322,0.059c0.037,0.019,0.065,0.045,0.084,0.077c0.02,0.033,0.028,0.072,0.025,0.116
			c-0.003,0.045-0.017,0.102-0.042,0.171s-0.062,0.151-0.109,0.245c-0.035,0.068-0.067,0.126-0.097,0.173
			c-0.031,0.047-0.06,0.088-0.087,0.123c-0.027,0.036-0.059,0.064-0.093,0.087c-0.034,0.021-0.073,0.04-0.116,0.054
			c-0.043,0.015-0.152,0.019-0.326,0.013s-0.39-0.035-0.646-0.086c-0.257-0.051-0.545-0.126-0.866-0.226
			c-0.321-0.1-0.648-0.234-0.983-0.404c-0.58-0.293-1.048-0.632-1.402-1.015s-0.6-0.809-0.737-1.278s-0.159-0.983-0.067-1.541
			c0.091-0.558,0.299-1.156,0.622-1.794c0.307-0.606,0.661-1.111,1.062-1.516c0.402-0.404,0.835-0.701,1.301-0.889
			c0.466-0.188,0.954-0.266,1.463-0.234c0.51,0.031,1.023,0.178,1.541,0.439c0.554,0.28,0.981,0.607,1.281,0.982
			c0.299,0.375,0.499,0.776,0.598,1.204c0.099,0.427,0.104,0.873,0.017,1.338s-0.247,0.928-0.48,1.388L162.29,340.262z
			 M161.183,339.219c0.359-0.672,0.478-1.282,0.355-1.83s-0.497-0.979-1.123-1.297c-0.321-0.162-0.633-0.244-0.936-0.246
			c-0.303-0.002-0.586,0.055-0.85,0.171c-0.264,0.116-0.507,0.283-0.73,0.502c-0.223,0.219-0.413,0.47-0.568,0.752L161.183,339.219z
			"/>
		<path d="M169.937,340.313c-0.053,0.117-0.1,0.215-0.141,0.293c-0.041,0.078-0.08,0.136-0.116,0.174
			c-0.037,0.039-0.072,0.064-0.107,0.077c-0.035,0.014-0.074,0.011-0.117-0.009c-0.042-0.019-0.089-0.055-0.14-0.105
			c-0.051-0.052-0.109-0.107-0.176-0.166c-0.066-0.059-0.143-0.12-0.23-0.185c-0.086-0.064-0.186-0.122-0.298-0.173
			c-0.134-0.06-0.277-0.092-0.429-0.096s-0.327,0.023-0.523,0.083s-0.418,0.156-0.665,0.29s-0.529,0.306-0.848,0.516l-2.128,4.748
			c-0.019,0.043-0.046,0.074-0.081,0.094c-0.035,0.021-0.081,0.03-0.138,0.029c-0.058,0-0.132-0.014-0.222-0.041
			c-0.09-0.028-0.202-0.071-0.336-0.132c-0.128-0.058-0.233-0.11-0.313-0.159c-0.081-0.05-0.142-0.096-0.183-0.141
			c-0.042-0.044-0.064-0.085-0.07-0.122c-0.005-0.038,0.001-0.078,0.021-0.121l3.235-7.219c0.02-0.043,0.043-0.075,0.073-0.098
			c0.029-0.021,0.073-0.034,0.132-0.037c0.059-0.002,0.127,0.01,0.206,0.035c0.078,0.025,0.179,0.065,0.302,0.121
			c0.117,0.053,0.213,0.1,0.287,0.143s0.127,0.086,0.159,0.129c0.032,0.044,0.05,0.084,0.056,0.122
			c0.005,0.038-0.001,0.078-0.021,0.121l-0.471,1.051c0.327-0.2,0.618-0.353,0.874-0.456c0.255-0.104,0.484-0.174,0.686-0.208
			c0.202-0.035,0.388-0.038,0.558-0.011c0.17,0.028,0.333,0.077,0.488,0.146c0.069,0.031,0.146,0.071,0.231,0.118
			c0.085,0.048,0.17,0.104,0.257,0.169c0.086,0.064,0.163,0.127,0.228,0.188s0.108,0.113,0.128,0.154s0.03,0.076,0.03,0.104
			c0,0.029-0.004,0.064-0.013,0.104c-0.009,0.042-0.028,0.099-0.058,0.172C170.034,340.092,169.992,340.19,169.937,340.313z"/>
		<path d="M182.101,344.491c-0.192,0.534-0.455,0.985-0.786,1.352c-0.332,0.366-0.716,0.642-1.153,0.827
			c-0.438,0.185-0.924,0.274-1.46,0.268c-0.537-0.006-1.136-0.129-1.797-0.367l-1.216-0.438l-1.388,3.853
			c-0.016,0.045-0.042,0.078-0.079,0.103c-0.037,0.024-0.084,0.036-0.144,0.037c-0.059,0-0.137-0.009-0.233-0.028
			c-0.096-0.019-0.213-0.053-0.351-0.103s-0.25-0.098-0.335-0.145s-0.153-0.089-0.201-0.129c-0.048-0.039-0.078-0.079-0.087-0.12
			c-0.01-0.041-0.007-0.083,0.008-0.127l3.558-9.873c0.079-0.221,0.194-0.356,0.343-0.409c0.149-0.052,0.296-0.052,0.439,0
			l2.291,0.825c0.231,0.083,0.45,0.173,0.655,0.269c0.206,0.096,0.441,0.228,0.708,0.396c0.267,0.167,0.519,0.393,0.757,0.674
			c0.238,0.282,0.416,0.588,0.534,0.917s0.173,0.681,0.167,1.055C182.322,343.7,182.246,344.089,182.101,344.491z M180.563,344.067
			c0.157-0.436,0.207-0.828,0.149-1.18c-0.058-0.351-0.18-0.641-0.368-0.87c-0.188-0.229-0.404-0.41-0.646-0.541
			c-0.243-0.131-0.485-0.24-0.728-0.328l-1.314-0.474l-1.546,4.292l1.282,0.462c0.43,0.154,0.807,0.229,1.13,0.22
			c0.323-0.008,0.617-0.074,0.88-0.201c0.263-0.126,0.494-0.308,0.691-0.545C180.292,344.666,180.448,344.388,180.563,344.067z"/>
		<path d="M187.239,354.211c-0.02,0.067-0.058,0.111-0.113,0.132c-0.055,0.021-0.124,0.027-0.208,0.021
			c-0.084-0.007-0.202-0.032-0.353-0.077c-0.146-0.043-0.26-0.086-0.342-0.129s-0.138-0.087-0.167-0.132
			c-0.029-0.046-0.034-0.103-0.014-0.17l0.225-0.758c-0.437,0.255-0.887,0.421-1.353,0.497c-0.466,0.075-0.926,0.046-1.381-0.089
			c-0.399-0.119-0.744-0.278-1.037-0.478c-0.292-0.2-0.522-0.432-0.692-0.696c-0.169-0.264-0.274-0.558-0.315-0.882
			c-0.042-0.324-0.008-0.669,0.101-1.034c0.126-0.427,0.324-0.771,0.591-1.034c0.267-0.263,0.595-0.45,0.982-0.562
			c0.387-0.11,0.833-0.148,1.335-0.112c0.503,0.036,1.049,0.142,1.639,0.317l1.045,0.31l0.175-0.59
			c0.086-0.292,0.132-0.56,0.137-0.803s-0.04-0.459-0.133-0.648c-0.094-0.19-0.238-0.355-0.435-0.496
			c-0.196-0.141-0.455-0.259-0.775-0.354c-0.343-0.103-0.663-0.152-0.959-0.152c-0.297,0.001-0.562,0.02-0.796,0.058
			c-0.234,0.037-0.432,0.076-0.594,0.117c-0.162,0.04-0.276,0.051-0.344,0.03c-0.045-0.013-0.081-0.036-0.108-0.068
			c-0.027-0.032-0.047-0.075-0.059-0.128c-0.012-0.052-0.013-0.115-0.003-0.188c0.009-0.073,0.027-0.152,0.052-0.237
			c0.042-0.14,0.084-0.248,0.128-0.323c0.043-0.076,0.114-0.139,0.212-0.189s0.253-0.098,0.468-0.141
			c0.214-0.043,0.455-0.07,0.72-0.08s0.55,0.002,0.852,0.033s0.6,0.091,0.892,0.178c0.545,0.161,0.99,0.361,1.335,0.598
			c0.345,0.237,0.601,0.51,0.766,0.818c0.165,0.31,0.249,0.656,0.25,1.042c0.001,0.386-0.068,0.814-0.208,1.286L187.239,354.211z
			 M186.885,350.338l-1.188-0.353c-0.382-0.113-0.723-0.18-1.023-0.198c-0.3-0.019-0.561,0.008-0.784,0.079
			c-0.223,0.071-0.404,0.183-0.543,0.333c-0.14,0.151-0.244,0.342-0.312,0.572c-0.117,0.394-0.085,0.744,0.096,1.051
			c0.181,0.308,0.496,0.527,0.945,0.661c0.365,0.108,0.731,0.116,1.098,0.023s0.778-0.279,1.234-0.56L186.885,350.338z"/>
		<path d="M196.564,356.463c-0.011,0.046-0.032,0.083-0.063,0.111c-0.031,0.029-0.076,0.049-0.136,0.059
			c-0.06,0.011-0.139,0.01-0.239-0.001c-0.1-0.012-0.224-0.035-0.372-0.069c-0.154-0.036-0.28-0.07-0.377-0.102
			c-0.098-0.032-0.179-0.066-0.243-0.103s-0.113-0.077-0.147-0.124c-0.034-0.048-0.062-0.101-0.084-0.16l-2.255-5.022l-0.999,4.271
			c-0.011,0.046-0.031,0.081-0.061,0.107c-0.03,0.026-0.074,0.045-0.13,0.056s-0.132,0.011-0.226,0.001s-0.212-0.032-0.355-0.065
			c-0.137-0.031-0.25-0.064-0.338-0.097c-0.088-0.033-0.157-0.067-0.206-0.103s-0.08-0.071-0.092-0.107s-0.014-0.077-0.003-0.122
			l2.675-11.434c0.011-0.046,0.03-0.084,0.058-0.113c0.028-0.029,0.071-0.049,0.131-0.06c0.06-0.01,0.136-0.01,0.23,0
			c0.094,0.01,0.209,0.031,0.346,0.063c0.143,0.033,0.258,0.066,0.347,0.1c0.088,0.033,0.156,0.066,0.202,0.102
			c0.046,0.034,0.077,0.072,0.091,0.111c0.015,0.04,0.017,0.082,0.006,0.128l-1.63,6.966l3.659-2.52
			c0.059-0.047,0.119-0.082,0.178-0.107c0.06-0.025,0.129-0.042,0.206-0.051c0.078-0.009,0.166-0.007,0.265,0.008
			c0.099,0.014,0.217,0.037,0.354,0.069c0.143,0.033,0.261,0.065,0.356,0.097c0.095,0.031,0.17,0.063,0.225,0.098
			s0.092,0.069,0.11,0.107c0.019,0.037,0.021,0.081,0.01,0.133c-0.016,0.068-0.051,0.133-0.104,0.192s-0.133,0.125-0.24,0.196
			l-3.443,2.138l2.182,4.798c0.051,0.114,0.085,0.205,0.103,0.272C196.573,356.352,196.576,356.411,196.564,356.463z"/>
		<path d="M205.404,358.007c-0.007,0.047-0.026,0.084-0.054,0.111c-0.028,0.028-0.07,0.049-0.126,0.063
			c-0.056,0.015-0.131,0.02-0.225,0.016c-0.095-0.004-0.211-0.017-0.35-0.04c-0.145-0.024-0.262-0.05-0.353-0.077
			c-0.091-0.026-0.16-0.056-0.208-0.088c-0.048-0.031-0.082-0.065-0.099-0.101c-0.018-0.036-0.023-0.077-0.015-0.123l0.762-4.569
			c0.074-0.444,0.099-0.809,0.075-1.092c-0.024-0.283-0.086-0.534-0.187-0.753s-0.247-0.397-0.44-0.537
			c-0.194-0.139-0.429-0.231-0.707-0.278c-0.358-0.06-0.738,0.008-1.139,0.202c-0.401,0.195-0.839,0.505-1.313,0.931l-0.91,5.453
			c-0.008,0.046-0.026,0.083-0.054,0.111c-0.028,0.027-0.071,0.049-0.126,0.063s-0.131,0.02-0.226,0.016
			c-0.094-0.004-0.214-0.018-0.358-0.042c-0.139-0.022-0.253-0.048-0.344-0.075c-0.09-0.026-0.161-0.057-0.212-0.089
			c-0.051-0.032-0.084-0.065-0.099-0.101c-0.015-0.035-0.019-0.076-0.011-0.122l1.932-11.583c0.008-0.046,0.024-0.085,0.05-0.116
			c0.026-0.031,0.068-0.054,0.127-0.067c0.059-0.014,0.135-0.02,0.229-0.016c0.095,0.004,0.211,0.018,0.35,0.041
			c0.145,0.023,0.262,0.05,0.353,0.076c0.09,0.027,0.16,0.057,0.208,0.089c0.048,0.031,0.081,0.066,0.098,0.105
			c0.017,0.038,0.022,0.08,0.014,0.127l-0.779,4.673c0.483-0.365,0.95-0.618,1.401-0.76c0.452-0.142,0.888-0.178,1.31-0.107
			c0.52,0.087,0.943,0.248,1.269,0.483c0.326,0.236,0.574,0.52,0.745,0.851c0.17,0.331,0.27,0.703,0.299,1.115
			c0.029,0.411-0.002,0.897-0.096,1.458L205.404,358.007z"/>
		<path d="M212.425,358.217c-0.018,0.169-0.044,0.302-0.078,0.397c-0.034,0.097-0.077,0.166-0.128,0.207
			c-0.052,0.042-0.126,0.078-0.224,0.109c-0.098,0.03-0.208,0.053-0.33,0.065c-0.123,0.014-0.251,0.021-0.387,0.024
			c-0.136,0.003-0.271-0.003-0.405-0.017c-0.408-0.044-0.751-0.136-1.031-0.275c-0.28-0.139-0.501-0.328-0.664-0.566
			c-0.163-0.238-0.269-0.53-0.317-0.874s-0.048-0.743,0.001-1.198l0.497-4.596l-1.101-0.119c-0.087-0.01-0.152-0.063-0.195-0.162
			s-0.052-0.254-0.029-0.463c0.012-0.111,0.029-0.203,0.052-0.277c0.023-0.074,0.048-0.135,0.077-0.182s0.063-0.079,0.103-0.096
			c0.04-0.016,0.083-0.021,0.13-0.017l1.092,0.118l0.202-1.87c0.004-0.041,0.019-0.077,0.043-0.11
			c0.024-0.032,0.065-0.06,0.124-0.079c0.058-0.021,0.134-0.031,0.229-0.033c0.095-0.001,0.212,0.005,0.352,0.021
			c0.146,0.016,0.265,0.034,0.356,0.056c0.092,0.022,0.163,0.049,0.212,0.081c0.049,0.031,0.084,0.066,0.104,0.104
			c0.02,0.038,0.027,0.077,0.023,0.117l-0.202,1.87l2.019,0.218c0.047,0.006,0.086,0.021,0.119,0.044
			c0.033,0.024,0.06,0.063,0.081,0.115c0.021,0.052,0.033,0.117,0.037,0.194c0.003,0.076-0.001,0.171-0.013,0.281
			c-0.023,0.21-0.065,0.358-0.128,0.445c-0.063,0.088-0.137,0.127-0.225,0.117l-2.019-0.218l-0.474,4.387
			c-0.059,0.542-0.023,0.96,0.107,1.254s0.402,0.463,0.816,0.508c0.134,0.015,0.255,0.015,0.363-0.001
			c0.107-0.015,0.204-0.032,0.289-0.053c0.084-0.02,0.157-0.04,0.219-0.061c0.061-0.02,0.115-0.027,0.161-0.021
			c0.029,0.003,0.056,0.013,0.081,0.03c0.024,0.018,0.042,0.048,0.052,0.09c0.01,0.042,0.017,0.099,0.021,0.17
			C212.44,358.023,212.437,358.111,212.425,358.217z"/>
		<path d="M221.505,359.319c-0.002,0.047-0.014,0.086-0.036,0.117s-0.06,0.058-0.114,0.078s-0.124,0.035-0.208,0.043
			c-0.085,0.008-0.19,0.009-0.313,0.003c-0.135-0.006-0.244-0.017-0.329-0.032s-0.151-0.036-0.199-0.063
			c-0.049-0.025-0.081-0.055-0.097-0.088c-0.016-0.032-0.023-0.072-0.021-0.119l0.048-1.045c-0.474,0.477-0.936,0.818-1.385,1.026
			c-0.45,0.208-0.9,0.302-1.351,0.281c-0.527-0.024-0.966-0.133-1.318-0.325c-0.352-0.191-0.632-0.443-0.84-0.756
			c-0.209-0.312-0.352-0.67-0.43-1.075s-0.104-0.895-0.077-1.469l0.221-4.794c0.002-0.047,0.014-0.086,0.036-0.117
			s0.063-0.059,0.123-0.082c0.06-0.023,0.137-0.037,0.231-0.042c0.094-0.005,0.211-0.004,0.352,0.003
			c0.141,0.007,0.257,0.017,0.351,0.029c0.093,0.014,0.167,0.034,0.222,0.063c0.054,0.028,0.092,0.06,0.114,0.093
			s0.032,0.073,0.03,0.12l-0.212,4.601c-0.021,0.463-0.005,0.834,0.05,1.115c0.054,0.281,0.146,0.523,0.274,0.726
			s0.295,0.362,0.501,0.48c0.206,0.118,0.449,0.184,0.73,0.196c0.363,0.018,0.73-0.095,1.103-0.336
			c0.372-0.241,0.771-0.601,1.198-1.079l0.255-5.522c0.002-0.047,0.014-0.086,0.036-0.117s0.063-0.059,0.123-0.083
			c0.06-0.023,0.135-0.037,0.226-0.042s0.21-0.004,0.356,0.003c0.14,0.007,0.257,0.017,0.351,0.029
			c0.093,0.014,0.166,0.034,0.217,0.063c0.052,0.028,0.09,0.06,0.115,0.093c0.025,0.034,0.036,0.074,0.034,0.121L221.505,359.319z"
			/>
		<path d="M231.552,359.133c0.001,0.047-0.009,0.087-0.032,0.119c-0.022,0.033-0.06,0.063-0.111,0.087
			c-0.052,0.025-0.125,0.045-0.218,0.06s-0.21,0.024-0.351,0.028c-0.146,0.005-0.267,0.003-0.361-0.006s-0.168-0.024-0.221-0.046
			s-0.092-0.048-0.117-0.08c-0.024-0.031-0.038-0.07-0.039-0.117l-0.145-4.63c-0.014-0.451-0.061-0.813-0.139-1.086
			c-0.079-0.272-0.189-0.507-0.33-0.702c-0.141-0.194-0.32-0.342-0.537-0.44c-0.217-0.099-0.466-0.144-0.747-0.135
			c-0.363,0.012-0.722,0.151-1.078,0.421c-0.355,0.269-0.724,0.658-1.106,1.169l0.172,5.525c0.001,0.047-0.009,0.087-0.031,0.119
			c-0.022,0.033-0.06,0.063-0.112,0.088c-0.052,0.024-0.125,0.044-0.218,0.06c-0.093,0.014-0.213,0.023-0.36,0.028
			c-0.141,0.004-0.258,0.002-0.352-0.007c-0.094-0.009-0.169-0.023-0.226-0.046c-0.056-0.021-0.095-0.048-0.117-0.079
			c-0.021-0.032-0.033-0.071-0.034-0.118l-0.247-7.906c-0.001-0.047,0.006-0.087,0.023-0.119c0.017-0.033,0.051-0.063,0.103-0.092
			c0.052-0.027,0.119-0.047,0.2-0.059c0.082-0.012,0.19-0.02,0.325-0.023c0.129-0.004,0.236-0.003,0.321,0.003
			c0.085,0.007,0.151,0.022,0.199,0.047c0.047,0.025,0.082,0.054,0.104,0.085s0.033,0.07,0.035,0.117l0.033,1.046
			c0.429-0.512,0.862-0.891,1.297-1.136c0.435-0.245,0.877-0.374,1.329-0.389c0.527-0.017,0.974,0.06,1.339,0.227
			s0.665,0.396,0.896,0.688s0.402,0.637,0.511,1.035c0.109,0.398,0.173,0.878,0.19,1.44L231.552,359.133z"/>
		<path d="M241.215,358.196c0.005,0.046-0.003,0.088-0.022,0.126c-0.02,0.037-0.056,0.07-0.108,0.1s-0.129,0.055-0.227,0.077
			c-0.098,0.021-0.223,0.041-0.374,0.058c-0.157,0.017-0.287,0.025-0.39,0.027c-0.104,0.002-0.19-0.003-0.263-0.017
			c-0.072-0.013-0.132-0.035-0.18-0.069c-0.048-0.033-0.092-0.074-0.133-0.122l-3.782-4.001l0.462,4.361
			c0.005,0.047-0.002,0.087-0.022,0.121c-0.02,0.035-0.055,0.066-0.104,0.096c-0.05,0.028-0.121,0.054-0.213,0.075
			c-0.093,0.021-0.211,0.04-0.356,0.056c-0.141,0.015-0.258,0.021-0.352,0.02c-0.095-0.002-0.17-0.012-0.229-0.029
			c-0.058-0.017-0.099-0.041-0.122-0.07c-0.024-0.03-0.038-0.068-0.044-0.115l-1.236-11.677c-0.005-0.047,0.001-0.088,0.018-0.126
			c0.017-0.037,0.051-0.069,0.104-0.099c0.053-0.029,0.125-0.055,0.218-0.076c0.092-0.021,0.207-0.04,0.348-0.055
			c0.145-0.016,0.266-0.022,0.359-0.021c0.095,0.002,0.17,0.012,0.225,0.029s0.096,0.043,0.123,0.075s0.043,0.072,0.048,0.119
			l0.753,7.114l2.626-3.584c0.04-0.063,0.085-0.116,0.133-0.159c0.049-0.044,0.108-0.083,0.178-0.116
			c0.07-0.034,0.154-0.061,0.253-0.08c0.098-0.02,0.217-0.036,0.356-0.051c0.146-0.016,0.269-0.024,0.369-0.026
			c0.1-0.001,0.182,0.005,0.244,0.019c0.063,0.014,0.11,0.035,0.14,0.064c0.03,0.029,0.048,0.07,0.053,0.123
			c0.008,0.069-0.004,0.142-0.034,0.216s-0.085,0.162-0.162,0.265l-2.548,3.151l3.639,3.813c0.087,0.091,0.148,0.165,0.188,0.223
			C241.187,358.089,241.209,358.144,241.215,358.196z"/>
		<path d="M250.135,356.647c0.008,0.047,0.004,0.088-0.014,0.123c-0.018,0.036-0.05,0.07-0.098,0.103
			c-0.048,0.033-0.116,0.063-0.206,0.092c-0.091,0.028-0.205,0.056-0.343,0.08c-0.145,0.026-0.264,0.043-0.358,0.048
			c-0.094,0.005-0.169,0.001-0.226-0.013c-0.056-0.013-0.099-0.033-0.127-0.062c-0.029-0.027-0.048-0.063-0.056-0.11l-0.833-4.556
			c-0.081-0.444-0.181-0.795-0.3-1.054c-0.118-0.258-0.262-0.473-0.431-0.645c-0.168-0.172-0.367-0.291-0.597-0.356
			c-0.229-0.064-0.482-0.072-0.759-0.021c-0.357,0.065-0.691,0.257-1.002,0.576c-0.312,0.319-0.618,0.759-0.921,1.32l0.994,5.438
			c0.009,0.047,0.004,0.088-0.014,0.123c-0.017,0.036-0.05,0.07-0.097,0.103c-0.048,0.033-0.117,0.063-0.207,0.092
			s-0.207,0.056-0.352,0.082c-0.138,0.025-0.255,0.04-0.349,0.046c-0.095,0.005-0.171,0.001-0.23-0.012
			c-0.059-0.013-0.101-0.033-0.127-0.062s-0.043-0.065-0.052-0.111l-2.11-11.551c-0.009-0.046-0.006-0.088,0.008-0.127
			c0.014-0.038,0.046-0.073,0.097-0.106s0.121-0.063,0.211-0.093c0.09-0.028,0.204-0.055,0.343-0.08
			c0.144-0.026,0.263-0.042,0.357-0.048c0.095-0.005,0.17-0.001,0.226,0.013c0.057,0.014,0.099,0.035,0.128,0.066
			c0.029,0.03,0.049,0.068,0.057,0.114l0.853,4.66c0.33-0.507,0.684-0.903,1.06-1.189c0.377-0.287,0.775-0.468,1.196-0.545
			c0.519-0.095,0.972-0.087,1.357,0.024c0.387,0.11,0.717,0.293,0.989,0.547s0.493,0.57,0.66,0.947
			c0.167,0.378,0.302,0.846,0.404,1.405L250.135,356.647z"/>
		<path d="M261.789,345.36c0.012,0.039,0.02,0.089,0.023,0.148c0.005,0.06,0.005,0.136,0.001,0.228l-0.203,7.865
			c0.001,0.066-0.012,0.125-0.037,0.175s-0.067,0.096-0.126,0.136c-0.059,0.041-0.143,0.082-0.253,0.122
			c-0.111,0.04-0.251,0.084-0.42,0.132c-0.175,0.049-0.323,0.085-0.444,0.107c-0.122,0.021-0.221,0.031-0.298,0.028
			c-0.077-0.002-0.138-0.019-0.183-0.049c-0.045-0.029-0.084-0.07-0.117-0.122l-3.156-5.073l-0.038-0.071l0.005,0.081l0.077,5.941
			c0,0.066-0.013,0.125-0.038,0.175s-0.071,0.097-0.139,0.14c-0.066,0.043-0.157,0.085-0.27,0.126
			c-0.113,0.041-0.255,0.086-0.424,0.134c-0.175,0.049-0.319,0.083-0.433,0.104c-0.112,0.02-0.208,0.027-0.284,0.025
			c-0.077-0.003-0.138-0.02-0.184-0.049c-0.045-0.03-0.083-0.071-0.116-0.123l-4.264-6.605c-0.053-0.076-0.092-0.141-0.119-0.194
			c-0.027-0.053-0.046-0.1-0.058-0.139c-0.014-0.051-0.015-0.095-0.001-0.133c0.014-0.037,0.045-0.073,0.093-0.108
			c0.048-0.034,0.116-0.067,0.205-0.099s0.198-0.064,0.328-0.102c0.157-0.044,0.285-0.076,0.384-0.095s0.176-0.024,0.232-0.02
			c0.056,0.006,0.101,0.023,0.134,0.054c0.032,0.03,0.064,0.068,0.096,0.114l3.605,5.76l0.038,0.071l-0.004-0.081l-0.087-6.752
			c-0.003-0.054,0.003-0.103,0.019-0.146c0.015-0.044,0.045-0.082,0.09-0.116s0.11-0.068,0.195-0.102
			c0.085-0.032,0.198-0.069,0.339-0.108c0.136-0.039,0.248-0.065,0.338-0.082c0.09-0.016,0.163-0.021,0.22-0.016
			c0.056,0.005,0.101,0.021,0.132,0.049c0.032,0.027,0.061,0.063,0.085,0.104l3.593,5.78l0.038,0.071l-0.013-0.078l0.041-6.787
			c-0.004-0.054,0.003-0.103,0.018-0.146s0.047-0.083,0.095-0.118s0.117-0.069,0.208-0.104c0.091-0.034,0.209-0.072,0.355-0.114
			c0.136-0.038,0.245-0.065,0.328-0.083c0.084-0.018,0.152-0.021,0.207-0.013c0.054,0.01,0.095,0.025,0.123,0.048
			C261.754,345.272,261.775,345.31,261.789,345.36z"/>
		<path d="M271.609,350.053c0.024,0.065,0.021,0.123-0.01,0.173s-0.082,0.097-0.153,0.143c-0.07,0.046-0.18,0.097-0.327,0.152
			c-0.143,0.055-0.259,0.089-0.351,0.105c-0.091,0.016-0.162,0.014-0.213-0.004c-0.051-0.019-0.089-0.061-0.113-0.126l-0.281-0.74
			c-0.192,0.468-0.45,0.873-0.774,1.216s-0.709,0.598-1.152,0.767c-0.389,0.147-0.76,0.23-1.113,0.248
			c-0.354,0.019-0.678-0.026-0.973-0.134c-0.294-0.107-0.557-0.277-0.785-0.51c-0.229-0.232-0.412-0.527-0.547-0.883
			c-0.158-0.417-0.211-0.811-0.157-1.182s0.2-0.719,0.441-1.042c0.24-0.323,0.572-0.623,0.993-0.898
			c0.422-0.276,0.921-0.523,1.496-0.742l1.019-0.387l-0.219-0.575c-0.107-0.284-0.233-0.525-0.377-0.722s-0.31-0.341-0.499-0.436
			c-0.189-0.094-0.405-0.138-0.646-0.131c-0.242,0.008-0.519,0.07-0.831,0.188c-0.334,0.127-0.619,0.281-0.854,0.461
			c-0.235,0.181-0.436,0.356-0.599,0.528c-0.164,0.172-0.298,0.322-0.401,0.453c-0.104,0.13-0.189,0.208-0.255,0.232
			c-0.044,0.018-0.086,0.021-0.127,0.011c-0.042-0.009-0.083-0.031-0.124-0.065s-0.08-0.084-0.117-0.148
			c-0.037-0.063-0.071-0.138-0.103-0.22c-0.052-0.137-0.083-0.248-0.095-0.335c-0.011-0.087,0.008-0.18,0.055-0.279
			c0.047-0.099,0.143-0.231,0.286-0.396c0.145-0.164,0.319-0.331,0.525-0.5c0.205-0.169,0.438-0.332,0.697-0.49
			s0.532-0.291,0.816-0.399c0.531-0.202,1.007-0.313,1.425-0.334c0.418-0.021,0.786,0.042,1.105,0.188
			c0.318,0.146,0.595,0.37,0.83,0.676c0.234,0.306,0.439,0.688,0.614,1.149L271.609,350.053z M268.979,347.188l-1.158,0.439
			c-0.373,0.142-0.685,0.296-0.934,0.463c-0.251,0.167-0.442,0.346-0.576,0.538c-0.135,0.191-0.211,0.39-0.23,0.595
			s0.014,0.42,0.099,0.644c0.146,0.384,0.384,0.644,0.714,0.778s0.714,0.119,1.152-0.048c0.355-0.135,0.651-0.351,0.887-0.646
			c0.235-0.297,0.45-0.694,0.643-1.193L268.979,347.188z"/>
		<path d="M281.349,336.823c0.256,0.508,0.402,1.008,0.44,1.5c0.039,0.492-0.025,0.961-0.191,1.406
			c-0.167,0.444-0.437,0.859-0.811,1.244c-0.373,0.385-0.874,0.735-1.502,1.052l-1.153,0.582l1.843,3.657
			c0.021,0.042,0.027,0.084,0.02,0.128c-0.008,0.043-0.031,0.086-0.072,0.13c-0.04,0.043-0.101,0.093-0.181,0.149
			c-0.079,0.057-0.185,0.118-0.315,0.184c-0.131,0.066-0.243,0.114-0.336,0.145c-0.093,0.031-0.17,0.05-0.231,0.059
			c-0.062,0.008-0.11,0.001-0.147-0.02s-0.065-0.053-0.087-0.094l-4.722-9.372c-0.105-0.21-0.126-0.387-0.061-0.53
			c0.065-0.145,0.166-0.251,0.302-0.319l2.174-1.096c0.22-0.111,0.436-0.208,0.646-0.291c0.21-0.083,0.468-0.164,0.773-0.242
			c0.305-0.078,0.642-0.106,1.01-0.086c0.368,0.021,0.712,0.103,1.032,0.243s0.613,0.342,0.881,0.604
			C280.927,336.119,281.156,336.441,281.349,336.823z M279.983,337.648c-0.208-0.413-0.46-0.72-0.754-0.919
			s-0.589-0.311-0.885-0.332c-0.297-0.021-0.575,0.012-0.837,0.098s-0.508,0.187-0.738,0.303l-1.248,0.629l2.053,4.073l1.216-0.612
			c0.408-0.206,0.721-0.429,0.938-0.67c0.217-0.24,0.37-0.499,0.46-0.777s0.116-0.57,0.08-0.877
			C280.23,338.257,280.137,337.952,279.983,337.648z"/>
		<path d="M291.142,335.466c0.329,0.555,0.558,1.108,0.688,1.661s0.15,1.084,0.061,1.594s-0.298,0.987-0.621,1.435
			c-0.324,0.447-0.774,0.842-1.349,1.182c-0.56,0.331-1.097,0.537-1.611,0.617s-1.005,0.043-1.47-0.11
			c-0.466-0.153-0.9-0.417-1.306-0.79c-0.404-0.373-0.777-0.848-1.117-1.422c-0.328-0.555-0.559-1.108-0.691-1.659
			c-0.132-0.552-0.153-1.082-0.063-1.592c0.09-0.509,0.296-0.985,0.619-1.429s0.775-0.837,1.354-1.18
			c0.56-0.332,1.097-0.537,1.611-0.617s1.005-0.043,1.47,0.11c0.466,0.153,0.902,0.416,1.31,0.788
			C290.433,334.425,290.805,334.896,291.142,335.466z M289.898,336.314c-0.219-0.368-0.459-0.695-0.722-0.982
			s-0.546-0.508-0.85-0.661c-0.304-0.154-0.634-0.223-0.988-0.207c-0.354,0.017-0.733,0.143-1.135,0.381
			c-0.371,0.22-0.652,0.475-0.842,0.764s-0.3,0.604-0.331,0.947c-0.031,0.342,0.009,0.701,0.119,1.078
			c0.109,0.378,0.279,0.761,0.51,1.148c0.221,0.374,0.462,0.704,0.726,0.99c0.263,0.288,0.546,0.506,0.852,0.655
			c0.305,0.15,0.635,0.217,0.989,0.201c0.354-0.017,0.732-0.144,1.135-0.381c0.366-0.217,0.646-0.471,0.838-0.762
			c0.191-0.291,0.304-0.605,0.337-0.945c0.032-0.339-0.008-0.696-0.12-1.072S290.131,336.708,289.898,336.314z"/>
		<path d="M296.479,336.761c0.025,0.039,0.037,0.078,0.035,0.118s-0.018,0.084-0.049,0.133c-0.031,0.048-0.083,0.104-0.154,0.165
			c-0.072,0.062-0.169,0.132-0.292,0.213c-0.117,0.077-0.218,0.137-0.303,0.179s-0.157,0.068-0.216,0.079
			c-0.06,0.012-0.106,0.009-0.142-0.007s-0.065-0.043-0.091-0.082l-6.464-9.803c-0.025-0.039-0.04-0.079-0.042-0.12
			c-0.002-0.04,0.014-0.086,0.047-0.136c0.033-0.051,0.086-0.106,0.158-0.168c0.071-0.061,0.166-0.131,0.284-0.208
			c0.122-0.08,0.226-0.142,0.311-0.184c0.084-0.042,0.155-0.067,0.212-0.077c0.057-0.009,0.104-0.006,0.144,0.011
			s0.071,0.044,0.098,0.083L296.479,336.761z"/>
		<path d="M294.12,325.542c0.195,0.278,0.275,0.505,0.24,0.68s-0.194,0.361-0.477,0.56c-0.278,0.194-0.504,0.279-0.676,0.253
			c-0.173-0.025-0.354-0.176-0.546-0.449c-0.195-0.278-0.275-0.505-0.24-0.68s0.194-0.361,0.478-0.56
			c0.278-0.195,0.503-0.279,0.676-0.254C293.747,325.118,293.929,325.269,294.12,325.542z M300.056,334.305
			c0.026,0.038,0.04,0.077,0.039,0.117s-0.016,0.084-0.046,0.134c-0.029,0.049-0.079,0.105-0.149,0.169s-0.165,0.138-0.285,0.222
			c-0.115,0.08-0.215,0.143-0.298,0.187c-0.084,0.045-0.155,0.073-0.214,0.086s-0.106,0.012-0.142-0.003s-0.066-0.041-0.093-0.079
			l-4.539-6.479c-0.023-0.034-0.037-0.071-0.04-0.111c-0.004-0.041,0.011-0.087,0.043-0.138s0.083-0.108,0.153-0.172
			c0.069-0.063,0.162-0.136,0.277-0.216c0.12-0.084,0.222-0.148,0.306-0.192c0.083-0.044,0.153-0.072,0.21-0.083
			s0.104-0.009,0.145,0.006c0.039,0.016,0.07,0.04,0.094,0.074L300.056,334.305z"/>
		<path d="M306.263,328.189c0.06,0.079,0.109,0.15,0.149,0.212s0.068,0.117,0.087,0.165c0.019,0.049,0.031,0.095,0.038,0.137
			c0.007,0.043,0.003,0.116-0.011,0.219c-0.015,0.103-0.059,0.25-0.133,0.442c-0.074,0.193-0.174,0.39-0.297,0.59
			c-0.124,0.201-0.272,0.4-0.445,0.598c-0.174,0.198-0.37,0.381-0.59,0.547c-0.452,0.344-0.91,0.574-1.374,0.69
			c-0.463,0.117-0.922,0.121-1.375,0.013c-0.453-0.107-0.9-0.323-1.342-0.647c-0.44-0.323-0.868-0.758-1.283-1.304
			c-0.472-0.621-0.801-1.212-0.987-1.772s-0.257-1.084-0.209-1.568s0.197-0.932,0.45-1.341c0.252-0.408,0.586-0.771,1.001-1.086
			c0.2-0.152,0.41-0.282,0.627-0.388c0.218-0.106,0.429-0.189,0.633-0.249c0.205-0.061,0.399-0.098,0.583-0.112
			c0.185-0.015,0.325-0.015,0.424-0.001c0.099,0.013,0.171,0.028,0.217,0.045s0.092,0.042,0.14,0.075
			c0.048,0.034,0.096,0.077,0.143,0.13c0.047,0.052,0.103,0.12,0.166,0.204c0.139,0.183,0.214,0.325,0.228,0.43
			c0.013,0.104-0.012,0.179-0.072,0.226c-0.069,0.053-0.18,0.075-0.329,0.067s-0.329-0.005-0.54,0.008s-0.445,0.057-0.701,0.13
			c-0.257,0.074-0.521,0.214-0.792,0.419c-0.555,0.422-0.818,0.959-0.79,1.61c0.027,0.652,0.35,1.384,0.967,2.196
			c0.309,0.405,0.617,0.732,0.926,0.979c0.31,0.247,0.616,0.417,0.922,0.509s0.604,0.105,0.897,0.041s0.58-0.203,0.859-0.416
			c0.267-0.202,0.468-0.421,0.604-0.657s0.241-0.461,0.312-0.673c0.071-0.212,0.125-0.396,0.164-0.555
			c0.038-0.158,0.085-0.258,0.141-0.301c0.033-0.024,0.068-0.036,0.105-0.035c0.038,0.001,0.081,0.017,0.132,0.049
			c0.05,0.032,0.104,0.079,0.162,0.142S306.191,328.096,306.263,328.189z"/>
		<path d="M311.178,320.063c0.147,0.175,0.209,0.336,0.184,0.483c-0.025,0.148-0.095,0.27-0.207,0.364l-3.981,3.359
			c0.284,0.336,0.572,0.61,0.866,0.822c0.295,0.211,0.602,0.347,0.922,0.406c0.32,0.061,0.649,0.035,0.988-0.074
			c0.339-0.11,0.69-0.318,1.055-0.626c0.288-0.243,0.525-0.483,0.71-0.72c0.186-0.237,0.336-0.454,0.451-0.651
			c0.115-0.196,0.205-0.363,0.271-0.499c0.066-0.137,0.126-0.228,0.181-0.273c0.031-0.026,0.065-0.042,0.104-0.047
			c0.038-0.006,0.077,0.002,0.117,0.021c0.04,0.021,0.087,0.056,0.141,0.105c0.055,0.051,0.115,0.116,0.184,0.196
			c0.049,0.059,0.089,0.11,0.12,0.157c0.032,0.046,0.059,0.089,0.08,0.128s0.036,0.079,0.043,0.119s0.009,0.083,0.005,0.128
			c-0.004,0.046-0.043,0.147-0.116,0.306c-0.074,0.158-0.185,0.345-0.332,0.562c-0.146,0.216-0.329,0.452-0.546,0.708
			c-0.218,0.256-0.469,0.505-0.756,0.747c-0.497,0.419-0.991,0.718-1.482,0.895c-0.49,0.177-0.979,0.236-1.465,0.178
			c-0.485-0.058-0.968-0.237-1.445-0.54c-0.478-0.302-0.946-0.727-1.407-1.272c-0.438-0.52-0.766-1.043-0.98-1.571
			c-0.215-0.527-0.318-1.042-0.309-1.545c0.009-0.502,0.127-0.981,0.355-1.438c0.228-0.457,0.563-0.872,1.007-1.246
			c0.475-0.4,0.942-0.665,1.405-0.795c0.462-0.129,0.909-0.156,1.341-0.08c0.433,0.076,0.846,0.245,1.239,0.508
			c0.394,0.262,0.757,0.59,1.089,0.983L311.178,320.063z M309.785,320.674c-0.478-0.593-0.992-0.94-1.545-1.042
			c-0.552-0.102-1.097,0.074-1.633,0.526c-0.274,0.232-0.472,0.487-0.593,0.765c-0.12,0.278-0.178,0.562-0.174,0.85
			s0.063,0.577,0.177,0.868c0.114,0.29,0.271,0.563,0.47,0.816L309.785,320.674z"/>
	</g>
</g>
</svg>
